# xmcd CD database file
# Copyright (C) 1995-1998 Ti Kan
#
# Track frame offsets:
#	150
#	18360
#	33882
#	49045
#	68760
#	80950
#	95365
#	114590
#
# Disc length: 1789 seconds
#
# Revision: 1
# Processed by: cddbd v1.4PL0 Copyright (c) Steve Scherf et al.
# Submitted via: CDex 1.30Release
#
DISCID=5f06fb08
DTITLE=Col Finley - First cd
DYEAR=1999
DGENRE=Country
TTITLE0=Hey girl
TTITLE1=Hurly Burly
TTITLE2=My Life
TTITLE3=Cross That Line
TTITLE4=Live It Up
TTITLE5=Don't Tread On My Heart
TTITLE6=CowBoys And Memories
TTITLE7=Gift Wrapped In Child
EXTD=YEAR: 1999 ID3G:   2
EXTT0=
EXTT1=
EXTT2=
EXTT3=
EXTT4=
EXTT5=
EXTT6=
EXTT7=
PLAYORDER=
